<?xml version="1.0" encoding="UTF-8" standalone="no"?>
<!DOCTYPE svg PUBLIC "-//W3C//DTD SVG 1.1//EN"
 "http://www.w3.org/Graphics/SVG/1.1/DTD/svg11.dtd">
<!-- Generated by graphviz version 2.43.0 (0)
 -->
<!-- Title: codec Pages: 1 -->
<svg width="385pt" height="240pt"
 viewBox="0.00 0.00 384.66 240.36" xmlns="http://www.w3.org/2000/svg" xmlns:xlink="http://www.w3.org/1999/xlink">
<g id="graph0" class="graph" transform="scale(1 1) rotate(0) translate(4 236.36)">
<title>codec</title>
<polygon fill="white" stroke="transparent" points="-4,4 -4,-236.36 380.66,-236.36 380.66,4 -4,4"/>
<!-- recv -->
<g id="node1" class="node">
<title>recv</title>
<ellipse fill="none" stroke="black" cx="47" cy="-195" rx="33.47" ry="33.47"/>
<text text-anchor="middle" x="47" y="-198.8" font-family="Times,serif" font-size="14.00">recv</text>
<text text-anchor="middle" x="47" y="-183.8" font-family="Times,serif" font-size="14.00">msg</text>
</g>
<!-- deserialize -->
<g id="node3" class="node">
<title>deserialize</title>
<polygon fill="none" stroke="black" points="94,-144 0,-144 0,-108 94,-108 94,-144"/>
<text text-anchor="middle" x="47" y="-122.3" font-family="Times,serif" font-size="14.00">deserialize</text>
</g>
<!-- recv&#45;&gt;deserialize -->
<g id="edge1" class="edge">
<title>recv&#45;&gt;deserialize</title>
<path fill="none" stroke="black" d="M47,-161.57C47,-159.11 47,-156.64 47,-154.18"/>
<polygon fill="black" stroke="black" points="50.5,-154.06 47,-144.06 43.5,-154.06 50.5,-154.06"/>
</g>
<!-- send -->
<g id="node2" class="node">
<title>send</title>
<ellipse fill="none" stroke="black" cx="338.16" cy="-197" rx="35.21" ry="35.21"/>
<text text-anchor="middle" x="338.16" y="-200.8" font-family="Times,serif" font-size="14.00">send</text>
<text text-anchor="middle" x="338.16" y="-185.8" font-family="Times,serif" font-size="14.00">msg</text>
</g>
<!-- serialize -->
<g id="node5" class="node">
<title>serialize</title>
<polygon fill="none" stroke="black" points="376.66,-144 299.66,-144 299.66,-108 376.66,-108 376.66,-144"/>
<text text-anchor="middle" x="338.16" y="-122.3" font-family="Times,serif" font-size="14.00">serialize</text>
</g>
<!-- send&#45;&gt;serialize -->
<g id="edge5" class="edge">
<title>send&#45;&gt;serialize</title>
<path fill="none" stroke="black" d="M338.16,-151.36C338.16,-148.92 338.16,-146.47 338.16,-144.03"/>
<polygon fill="black" stroke="black" points="334.66,-151.41 338.16,-161.41 341.66,-151.41 334.66,-151.41"/>
</g>
<!-- fields -->
<g id="node7" class="node">
<title>fields</title>
<ellipse fill="none" stroke="black" cx="196.83" cy="-126" rx="36.29" ry="18"/>
<text text-anchor="middle" x="196.83" y="-122.3" font-family="Times,serif" font-size="14.00">fields</text>
</g>
<!-- deserialize&#45;&gt;fields -->
<g id="edge2" class="edge">
<title>deserialize&#45;&gt;fields</title>
<path fill="none" stroke="black" d="M94.37,-126C112.21,-126 132.54,-126 150.3,-126"/>
<polygon fill="black" stroke="black" points="150.42,-129.5 160.42,-126 150.42,-122.5 150.42,-129.5"/>
</g>
<!-- id -->
<g id="node8" class="node">
<title>id</title>
<ellipse fill="none" stroke="black" cx="196.83" cy="-72" rx="27" ry="18"/>
<text text-anchor="middle" x="196.83" y="-68.3" font-family="Times,serif" font-size="14.00">id</text>
</g>
<!-- deserialize&#45;&gt;id -->
<g id="edge3" class="edge">
<title>deserialize&#45;&gt;id</title>
<path fill="none" stroke="black" d="M94.37,-109.06C116.78,-100.88 143.14,-91.25 163.37,-83.86"/>
<polygon fill="black" stroke="black" points="164.57,-87.14 172.77,-80.43 162.17,-80.57 164.57,-87.14"/>
</g>
<!-- setters -->
<g id="node4" class="node">
<title>setters</title>
<polygon fill="none" stroke="black" points="80.5,-90 13.5,-90 13.5,-54 80.5,-54 80.5,-90"/>
<text text-anchor="middle" x="47" y="-68.3" font-family="Times,serif" font-size="14.00">setters</text>
</g>
<!-- setters&#45;&gt;fields -->
<g id="edge7" class="edge">
<title>setters&#45;&gt;fields</title>
<path fill="none" stroke="black" d="M80.81,-83.98C103.54,-92.29 133.87,-103.37 157.68,-112.06"/>
<polygon fill="black" stroke="black" points="156.52,-115.36 167.11,-115.51 158.92,-108.79 156.52,-115.36"/>
</g>
<!-- setters&#45;&gt;id -->
<g id="edge9" class="edge">
<title>setters&#45;&gt;id</title>
<path fill="none" stroke="black" d="M80.81,-72C104.08,-72 135.31,-72 159.36,-72"/>
<polygon fill="black" stroke="black" points="159.51,-75.5 169.51,-72 159.51,-68.5 159.51,-75.5"/>
</g>
<!-- appcall -->
<g id="node9" class="node">
<title>appcall</title>
<polygon fill="none" stroke="gray" points="263.5,-10.54 263.5,-25.46 224.44,-36 169.22,-36 130.17,-25.46 130.17,-10.54 169.22,0 224.44,0 263.5,-10.54"/>
<text text-anchor="middle" x="196.83" y="-14.3" font-family="Times,serif" font-size="14.00">application</text>
</g>
<!-- setters&#45;&gt;appcall -->
<g id="edge11" class="edge">
<title>setters&#45;&gt;appcall</title>
<path fill="none" stroke="black" d="M90.29,-56.55C110.95,-49 135.69,-39.97 156.01,-32.55"/>
<polygon fill="black" stroke="black" points="89,-53.3 80.81,-60.02 91.4,-59.87 89,-53.3"/>
</g>
<!-- getters -->
<g id="node6" class="node">
<title>getters</title>
<polygon fill="none" stroke="black" points="372.16,-90 304.16,-90 304.16,-54 372.16,-54 372.16,-90"/>
<text text-anchor="middle" x="338.16" y="-68.3" font-family="Times,serif" font-size="14.00">getters</text>
</g>
<!-- fields&#45;&gt;serialize -->
<g id="edge6" class="edge">
<title>fields&#45;&gt;serialize</title>
<path fill="none" stroke="black" d="M233.35,-126C250.28,-126 270.78,-126 289.08,-126"/>
<polygon fill="black" stroke="black" points="289.27,-129.5 299.27,-126 289.27,-122.5 289.27,-129.5"/>
</g>
<!-- fields&#45;&gt;getters -->
<g id="edge8" class="edge">
<title>fields&#45;&gt;getters</title>
<path fill="none" stroke="black" d="M226.03,-115.07C245.7,-107.45 272.31,-97.14 294.56,-88.51"/>
<polygon fill="black" stroke="black" points="296.05,-91.69 304.11,-84.81 293.52,-85.16 296.05,-91.69"/>
</g>
<!-- id&#45;&gt;serialize -->
<g id="edge4" class="edge">
<title>id&#45;&gt;serialize</title>
<path fill="none" stroke="black" d="M220.53,-80.8C239.3,-88.07 266.59,-98.65 290.06,-107.74"/>
<polygon fill="black" stroke="black" points="288.92,-111.05 299.51,-111.4 291.45,-104.53 288.92,-111.05"/>
</g>
<!-- id&#45;&gt;getters -->
<g id="edge10" class="edge">
<title>id&#45;&gt;getters</title>
<path fill="none" stroke="black" d="M224.04,-72C243.66,-72 270.93,-72 293.79,-72"/>
<polygon fill="black" stroke="black" points="293.93,-75.5 303.93,-72 293.93,-68.5 293.93,-75.5"/>
</g>
<!-- appcall&#45;&gt;getters -->
<g id="edge12" class="edge">
<title>appcall&#45;&gt;getters</title>
<path fill="none" stroke="black" d="M245.77,-36.58C264.98,-44.02 286.64,-52.42 304.05,-59.17"/>
<polygon fill="black" stroke="black" points="246.86,-33.25 236.27,-32.9 244.33,-39.78 246.86,-33.25"/>
</g>
</g>
</svg>
